<mxfile host="65bd71144e" modified="2023-11-21T21:44:17.093Z" agent="Mozilla/5.0 (Windows NT 10.0; Win64; x64) AppleWebKit/537.36 (KHTML, like Gecko) Code/1.84.2 Chrome/114.0.5735.289 Electron/25.9.2 Safari/537.36" etag="OxIYeOJHIF2k68o4Ores" version="22.1.3" type="embed">
    <diagram id="p_pJn7svEYxFl72tqzCv" name="Page-1">
        <mxGraphModel dx="667" dy="234" grid="1" gridSize="10" guides="1" tooltips="1" connect="1" arrows="1" fold="1" page="1" pageScale="1" pageWidth="850" pageHeight="1100" math="0" shadow="0">
            <root>
                <mxCell id="0"/>
                <mxCell id="1" parent="0"/>
                <mxCell id="23" value="Processing Node 2&lt;br style=&quot;font-size: 13px;&quot;&gt;(implementing Qoala)" style="rounded=1;whiteSpace=wrap;html=1;verticalAlign=top;fontSize=13;" parent="1" vertex="1">
                    <mxGeometry x="600" y="180" width="140" height="210" as="geometry"/>
                </mxCell>
                <mxCell id="24" value="SinglePair/MultiPair task handler" style="rounded=0;whiteSpace=wrap;html=1;fontSize=13;" parent="1" vertex="1">
                    <mxGeometry x="610" y="230" width="120" height="50" as="geometry"/>
                </mxCell>
                <mxCell id="26" value="Network stack" style="rounded=0;whiteSpace=wrap;html=1;verticalAlign=bottom;fontSize=13;" parent="1" vertex="1">
                    <mxGeometry x="610" y="310" width="120" height="70" as="geometry"/>
                </mxCell>
                <mxCell id="25" value="Request store" style="rounded=0;whiteSpace=wrap;html=1;fontSize=13;" parent="1" vertex="1">
                    <mxGeometry x="625" y="320" width="90" height="30" as="geometry"/>
                </mxCell>
                <mxCell id="29" value="EPR request" style="edgeStyle=none;html=1;entryX=0.5;entryY=0;entryDx=0;entryDy=0;fontSize=12;" parent="1" target="25" edge="1">
                    <mxGeometry relative="1" as="geometry">
                        <mxPoint x="670" y="270" as="sourcePoint"/>
                    </mxGeometry>
                </mxCell>
                <mxCell id="30" value="Processing Node 1&lt;br style=&quot;font-size: 13px;&quot;&gt;(implementing Qoala)" style="rounded=1;whiteSpace=wrap;html=1;verticalAlign=top;fontSize=13;" parent="1" vertex="1">
                    <mxGeometry x="355" y="180" width="140" height="210" as="geometry"/>
                </mxCell>
                <mxCell id="31" value="SinglePair/MultiPair task handler" style="rounded=0;whiteSpace=wrap;html=1;fontSize=13;" parent="1" vertex="1">
                    <mxGeometry x="365" y="230" width="120" height="50" as="geometry"/>
                </mxCell>
                <mxCell id="35" value="Synchronization" style="edgeStyle=none;html=1;exitX=1;exitY=0.5;exitDx=0;exitDy=0;entryX=0;entryY=0.5;entryDx=0;entryDy=0;startArrow=classic;startFill=1;labelBackgroundColor=none;" parent="1" source="32" target="26" edge="1">
                    <mxGeometry x="-0.008" y="11" relative="1" as="geometry">
                        <mxPoint as="offset"/>
                    </mxGeometry>
                </mxCell>
                <mxCell id="32" value="Network stack" style="rounded=0;whiteSpace=wrap;html=1;verticalAlign=bottom;fontSize=13;" parent="1" vertex="1">
                    <mxGeometry x="365" y="310" width="120" height="70" as="geometry"/>
                </mxCell>
                <mxCell id="33" value="Request store" style="rounded=0;whiteSpace=wrap;html=1;fontSize=13;" parent="1" vertex="1">
                    <mxGeometry x="380" y="320" width="90" height="30" as="geometry"/>
                </mxCell>
                <mxCell id="34" value="EPR request" style="edgeStyle=none;html=1;entryX=0.5;entryY=0;entryDx=0;entryDy=0;fontSize=12;labelBackgroundColor=none;" parent="1" target="33" edge="1">
                    <mxGeometry relative="1" as="geometry">
                        <mxPoint x="425" y="270" as="sourcePoint"/>
                    </mxGeometry>
                </mxCell>
            </root>
        </mxGraphModel>
    </diagram>
</mxfile>